<?xml version="1.0" encoding="utf-8"?>
<!-- Generator: Adobe Illustrator 27.5.0, SVG Export Plug-In . SVG Version: 6.00 Build 0)  -->
<svg version="1.1" id="Warstwa_1" xmlns="http://www.w3.org/2000/svg" xmlns:xlink="http://www.w3.org/1999/xlink" x="0px" y="0px"
	 viewBox="0 0 390 378" style="enable-background:new 0 0 390 378;" xml:space="preserve">
<style type="text/css">
	.st0{fill:#FFFFFF;}
	.st1{fill:#00494B;}
</style>
<g>
	<rect class="st0" width="390" height="378"/>
	<path class="st1" d="M122.7,71.6h29.4c-2,7.8-12.3,48.7-16.9,68.4c-1.9,8.1-4.1,17.9-4.1,26.1c0.1,11.3,3.6,20.2,8.6,23.7
		c13.1,9.3,25.3,7,32.6,0.1c3.7-3.5,7-9.4,8.3-17.9c2.5-16.7,0.3-38.9-7.8-47.3c-4.9-5.1-11.6-5.8-16.9-3.4
		c-0.3-12,4.9-15.2,12.6-14.4l1.2-1.1c0.2-6.2,5.8-8.6,19.2-5.1c15.4,1.5,22.3,1.2,25.8,0.1c-5.3,12.2-5.8,25.2-6.3,36.9
		c-0.2,4.9-0.3,28.9,1.7,37c1.9,7.7,5.6,13.6,8.9,16.5c5,4.4,20.4,11,30.4-1.1c4.4-5.4,7.4-13.4,8.5-22.1c1.5-11.6,0-24.1-3.1-30.6
		c-12.8-27.6-35.4-11.4-35.4-10.8c-2.8-19.2,12.4-30.9,23.8-30.9s19.8,1.9,31.9,14.5c6.4,6.7,12.2,19.8,14.3,33.9
		c2.1,13.8,0.6,28.3-1.6,37.8c-2.2,9.5-7.1,24.6-17.8,33c-10.7,8.4-25.8,11.1-43,5.8c-5.5-1.6-10.9-4.4-17.3-7.5
		c-0.1,8.4-2.9,62.5,7.3,82.9c-14.9-2.3-29.5-2.3-43.7,0c9.4-27.7,8.6-55.8,6.6-83.9c0-0.4-0.1-0.8-0.1-1.2
		c-8,8.5-38.1,19.5-64.1-2.4c-14.6-12.3-18.5-29.4-13.8-54.9C106.6,128.2,118.7,89.8,122.7,71.6"/>
</g>
</svg>
